<?xml version="1.0" encoding="iso-8859-1"?>
<!-- Generator: Adobe Illustrator 19.0.0, SVG Export Plug-In . SVG Version: 6.00 Build 0)  -->
<svg version="1.1" id="Layer_1" xmlns="http://www.w3.org/2000/svg" xmlns:xlink="http://www.w3.org/1999/xlink" x="0px" y="0px"
	 viewBox="0 0 512 512" style="enable-background:new 0 0 512 512;" xml:space="preserve">
<g>
	<g>
		<path d="M501.423,230.466L366.956,95.999c-6.821-6.819-15.888-10.576-25.534-10.576c-19.911,0-36.109,16.198-36.109,36.109v89.279
			H45.189C20.271,210.811,0,231.082,0,256s20.271,45.189,45.189,45.189h260.126v89.279c0,19.911,16.198,36.109,36.109,36.109
			c9.645,0,18.713-3.755,25.534-10.577l134.466-134.466C508.244,274.713,512,265.645,512,256S508.244,237.286,501.423,230.466z
			 M486.999,267.109L352.532,401.576c-2.968,2.967-6.913,4.602-11.11,4.602c-8.663,0-15.711-7.048-15.711-15.711v-99.478
			c0-5.632-4.566-10.199-10.199-10.199H45.189c-13.669,0-24.79-11.121-24.79-24.79s11.121-24.79,24.79-24.79v-0.002h270.324
			c5.633,0,10.199-4.567,10.199-10.199v-99.478c0-8.663,7.048-15.711,15.711-15.711c4.197,0,8.143,1.635,11.11,4.602
			l134.466,134.467c2.967,2.968,4.602,6.912,4.602,11.11S489.967,264.142,486.999,267.109z"/>
	</g>
</g>
<g>
	<g>
		<path d="M396.822,164.36l-2.266-2.266c-3.984-3.982-10.442-3.982-14.425,0c-3.983,3.984-3.983,10.442,0,14.425l2.266,2.266
			c1.991,1.991,4.602,2.987,7.212,2.987c2.61,0,5.221-0.996,7.213-2.987C400.805,174.801,400.805,168.343,396.822,164.36z"/>
	</g>
</g>
<g>
	<g>
		<path d="M479.435,247.14l-59.666-59.667c-3.983-3.981-10.441-3.982-14.424,0c-3.983,3.984-3.983,10.442,0,14.425l59.666,59.667
			c1.992,1.991,4.601,2.987,7.212,2.987c2.61,0,5.221-0.997,7.212-2.987C483.418,257.581,483.418,251.123,479.435,247.14z"/>
	</g>
</g>
<g>
</g>
<g>
</g>
<g>
</g>
<g>
</g>
<g>
</g>
<g>
</g>
<g>
</g>
<g>
</g>
<g>
</g>
<g>
</g>
<g>
</g>
<g>
</g>
<g>
</g>
<g>
</g>
<g>
</g>
</svg>
